# xmcd
#
# Track frame offsets: 
#        150
#        10454
#        20758
#        32924
#        41780
#        52685
#        63938
#        74778
#        85312
#        98305
#
# Disc length: 1454 seconds
#
# Revision: 0
# Processed by: cddbd v1.5.2PL0 Copyright (c) Steve Scherf et al.
# Submitted via: ExactAudioCopy v0.95b4
#
DISCID=8005ac0a
DTITLE=Faron Young - Hillbilly Heartthrob
DYEAR=2006
DGENRE=Country
TTITLE0=hello walls
TTITLE1=live fast, love hard, die young
TTITLE2=sweet dreams
TTITLE3=alone with you
TTITLE4=all right
TTITLE5=country girl
TTITLE6=i miss you already (and you're not even gone)
TTITLE7=if you ain't lovin' (you ain't livin')
TTITLE8=it's four in the morning
TTITLE9=wine me up
EXTD=
EXTT0=
EXTT1=
EXTT2=
EXTT3=
EXTT4=
EXTT5=
EXTT6=
EXTT7=
EXTT8=
EXTT9=
PLAYORDER=
